# 3ds Max Wavefront OBJ Exporter v0.97b - (c)2007 guruware
# File Created: 14.01.2015 14:42:41

#
# object Plane002
#

v  -11.0000 -2.0000 -0.0000
v  -13.0000 -2.0000 -2.0000
v  -13.0000 0.0000 -0.0000
v  -1.0000 -2.0000 6.0000
v  -3.0000 -2.0000 8.0000
v  -1.0000 0.0000 8.0000
v  5.0000 -2.0000 -4.0000
v  7.0000 -2.0000 -2.0000
v  7.0000 0.0000 -4.0000
v  -5.0000 -2.0000 -10.0000
v  -3.0000 -2.0000 -12.0000
v  -5.0000 0.0000 -12.0000
v  -5.0000 -2.0000 6.0000
v  -5.0000 0.0000 8.0000
v  5.0000 -2.0000 -0.0000
v  7.0000 0.0000 -0.0000
v  -1.0000 -2.0000 -10.0000
v  -1.0000 0.0000 -12.0000
v  -11.0000 -2.0000 -4.0000
v  -13.0000 0.0000 -4.0000
v  7.0000 0.0000 8.0000
v  7.0000 -32.0000 8.0000
v  7.0000 -2.8367 -1.5187
v  7.0000 -32.0000 -1.5187
v  7.0000 -2.8367 -2.4813
v  7.0000 -32.0000 -12.0000
v  7.0000 -32.0000 -2.4813
v  7.0000 0.0000 -12.0000
v  -2.5187 -2.8367 -12.0000
v  -2.5187 -32.0000 -12.0000
v  -3.5000 -2.8367 -12.0000
v  -13.0000 -32.0000 -12.0000
v  -3.4813 -32.0000 -12.0000
v  -13.0000 0.0000 -12.0000
v  -13.0000 -2.8367 -2.4813
v  -13.0000 -32.0000 -2.4813
v  -13.0000 -2.8367 -1.5187
v  -13.0000 -32.0000 8.0000
v  -13.0000 -32.0000 -1.5187
v  -13.0000 0.0000 8.0000
v  -3.5000 -2.8367 8.0000
v  -3.4813 -32.0000 8.0000
v  -2.5187 -2.8367 8.0000
v  -2.5187 -32.0000 8.0000
v  -15.0000 -35.9688 -14.0000
v  -15.0000 -35.9688 -4.4813
v  9.0000 -35.9688 -14.0000
v  -0.5187 -35.9688 -14.0000
v  9.0000 -35.9688 10.0000
v  9.0000 -35.9688 0.4813
v  -15.0000 -35.9688 10.0000
v  -5.4813 -35.9688 10.0000
v  9.0000 -35.9688 -4.4813
v  -5.4813 -35.9688 -14.0000
v  -15.0000 -35.9688 0.4813
v  -0.5187 -35.9688 10.0000
v  -3.0000 -32.6393 8.3221
v  -4.7062 -35.9688 10.0000
v  -1.2938 -35.9688 10.0000
v  7.3221 -32.6393 -2.0000
v  9.0000 -35.9688 -0.2938
v  9.0000 -35.9688 -3.7062
v  -3.0000 -32.6393 -12.3221
v  -1.2938 -35.9688 -14.0000
v  -4.7062 -35.9688 -14.0000
v  -13.3221 -32.6393 -2.0000
v  -15.0000 -35.9688 -3.7062
v  -15.0000 -35.9688 -0.2938
v  5.0000 -2.0000 6.0000
v  5.0000 -2.0000 -10.0000
v  -11.0000 -2.0000 -10.0000
v  -11.0000 -2.0000 6.0000
v  -3.0000 -2.0000 -10.0000
v  -11.0000 -2.0000 -2.0000
v  -11.0000 -35.1937 -2.0000
v  -3.0000 -35.1937 -10.0000
v  5.0000 -2.0000 -2.0000
v  5.0000 -35.1937 -2.0000
v  -3.0000 -2.0000 6.0000
v  -3.0000 -35.1937 6.0000
v  -11.0000 -26.1798 -4.0000
v  -11.0000 -26.1798 -10.0000
v  -5.0000 -26.1798 6.0000
v  -11.0000 -26.1798 6.0000
v  5.0000 -26.1798 -0.0000
v  5.0000 -26.1798 6.0000
v  -1.0000 -26.1798 -10.0000
v  5.0000 -26.1798 -10.0000
v  -11.0000 -26.1798 -0.0000
v  -1.0000 -26.1798 6.0000
v  -5.0000 -26.1798 -10.0000
v  5.0000 -26.1798 -4.0000
v  -3.0000 -2.8367 7.0000
v  6.0000 -2.8367 -2.0000
v  -3.0000 -2.8367 -11.0000
v  -12.0000 -2.8367 -2.0000
v  6.0000 -32.0000 -2.0000
v  8.0000 -35.9688 0.0938
v  8.0000 -35.9688 -4.0938
v  -3.0000 -32.0000 -11.0000
v  -0.9062 -35.9688 -13.0000
v  -5.0938 -35.9688 -13.0000
v  -12.0000 -32.0000 -2.0000
v  -14.0000 -35.9688 -4.0938
v  -14.0000 -35.9688 0.0938
v  -3.0000 -32.0000 7.0000
v  -5.0938 -35.9688 9.0000
v  -0.9062 -35.9688 9.0000
# 108 vertices

vn 0.5774 0.5774 -0.5774
vn -0.5774 0.5774 -0.5774
vn -0.5774 0.5774 0.5774
vn 0.5774 0.5774 0.5774
vn 1.0000 0.0000 -0.0000
vn 0.0000 0.0000 -1.0000
vn -1.0000 0.0000 -0.0000
vn 0.0000 0.0000 1.0000
vn -0.8930 0.4500 -0.0000
vn 0.0000 0.4500 -0.8930
vn 0.8930 0.4500 -0.0000
vn 0.0000 0.4500 0.8930
vn -0.7071 0.7071 -0.0000
vn 0.0000 0.7071 0.7071
vn 0.7071 0.7071 -0.0000
vn 0.0000 0.7071 -0.7071
vn 0.7071 0.0000 0.7071
vn -0.7071 0.0000 0.7071
vn -0.7071 0.0000 -0.7071
vn 0.7071 0.0000 -0.7071
vn 0.0000 1.0000 -0.0000
vn 0.7888 -0.4714 0.3944
vn 0.3850 -0.4602 -0.8000
vn -0.8000 -0.4602 -0.3850
vn -0.3850 -0.4602 0.8000
vn 0.2827 0.5512 0.7850
vn 0.3844 -0.2627 0.8850
vn 0.7850 0.5512 -0.2827
vn 0.8850 -0.2627 -0.3844
vn -0.2827 0.5512 -0.7850
vn -0.3844 -0.2627 -0.8850
vn -0.7850 0.5512 0.2827
vn -0.8850 -0.2627 0.3844
vn -0.9011 0.0000 0.4337
vn 0.4337 0.0000 0.9011
vn 0.8978 0.0003 -0.4405
vn -0.4337 0.0000 -0.9011
vn 0.8978 0.0003 0.4405
vn 0.4337 0.0000 -0.9011
vn -0.9011 0.0000 -0.4337
vn -0.4337 0.0000 0.9011
vn 0.2827 0.5512 -0.7850
vn 0.3844 -0.2627 -0.8850
vn -0.8850 -0.2627 -0.3844
vn -0.7850 0.5512 -0.2827
vn -0.3844 -0.2627 0.8850
vn -0.2827 0.5512 0.7850
vn 0.8850 -0.2627 0.3844
vn 0.7850 0.5512 0.2827
vn -0.8000 -0.4602 0.3850
vn -0.3850 -0.4602 -0.8000
vn 0.7888 -0.4714 -0.3944
vn 0.3850 -0.4602 0.8000
# 53 vertex normals

g Plane002
s off
f 1//1 2//1 3//1 
f 4//2 5//2 6//2 
f 7//3 8//3 9//3 
f 10//4 11//4 12//4 
f 13//1 14//1 5//1 
f 15//2 16//2 8//2 
f 17//3 18//3 11//3 
f 19//4 20//4 2//4 
f 16//5 21//5 22//5 23//5 
f 22//5 24//5 23//5 
f 8//5 16//5 23//5 
f 9//5 8//5 25//5 26//5 
f 25//5 27//5 26//5 
f 28//5 9//5 26//5 
f 18//6 28//6 26//6 29//6 
f 26//6 30//6 29//6 
f 11//6 18//6 29//6 
f 12//6 11//6 31//6 32//6 
f 31//6 33//6 32//6 
f 34//6 12//6 32//6 
f 20//7 34//7 32//7 35//7 
f 32//7 36//7 35//7 
f 2//7 20//7 35//7 
f 3//7 2//7 37//7 38//7 
f 37//7 39//7 38//7 
f 40//7 3//7 38//7 
f 14//8 40//8 38//8 41//8 
f 38//8 42//8 41//8 
f 5//8 14//8 41//8 
f 6//8 5//8 43//8 22//8 
f 43//8 44//8 22//8 
f 21//8 6//8 22//8 
f 36//9 32//9 45//9 46//9 
f 30//10 26//10 47//10 48//10 
f 24//11 22//11 49//11 50//11 
f 42//12 38//12 51//12 52//12 
f 26//11 27//11 53//11 47//11 
f 32//10 33//10 54//10 45//10 
f 38//9 39//9 55//9 51//9 
f 22//12 44//12 56//12 49//12 
f 57//12 58//12 59//12 
f 60//11 61//11 62//11 
f 63//10 64//10 65//10 
f 66//9 67//9 68//9 
f 69//13 21//13 16//13 15//13 
f 9//13 28//13 70//13 7//13 
f 70//14 28//14 18//14 17//14 
f 12//14 34//14 71//14 10//14 
f 71//15 34//15 20//15 19//15 
f 3//15 40//15 72//15 1//15 
f 72//16 40//16 14//16 13//16 
f 6//16 21//16 69//16 4//16 
f 73//17 74//17 75//17 76//17 
f 77//18 73//18 76//18 78//18 
f 79//19 77//19 78//19 80//19 
f 74//20 79//20 80//20 75//20 
f 71//5 19//5 81//5 82//5 
f 72//6 13//6 83//6 84//6 
f 69//7 15//7 85//7 86//7 
f 70//8 17//8 87//8 88//8 
f 13//18 1//18 89//18 83//18 
f 15//17 4//17 90//17 85//17 
f 19//19 10//19 91//19 81//19 
f 17//20 7//20 92//20 87//20 
f 7//7 70//7 88//7 92//7 
f 10//8 71//8 82//8 91//8 
f 1//5 72//5 84//5 89//5 
f 4//6 69//6 86//6 90//6 
f 13//21 5//21 79//21 74//21 
f 1//21 13//21 74//21 2//21 
f 19//21 2//21 74//21 73//21 
f 10//21 19//21 73//21 11//21 
f 17//21 11//21 73//21 77//21 
f 7//21 17//21 77//21 8//21 
f 15//21 8//21 77//21 79//21 
f 4//21 15//21 79//21 5//21 
f 5//22 41//22 93//22 
f 8//23 23//23 94//23 
f 11//24 29//24 95//24 
f 2//25 35//25 96//25 
f 60//26 97//26 98//26 61//26 
f 97//27 99//27 53//27 27//27 
f 63//28 100//28 101//28 64//28 
f 100//29 102//29 54//29 33//29 
f 66//30 103//30 104//30 67//30 
f 103//31 105//31 55//31 39//31 
f 57//32 106//32 107//32 58//32 
f 106//33 108//33 56//33 44//33 
f 93//34 106//34 44//34 43//34 
f 94//35 97//35 27//35 25//35 
f 95//36 100//36 33//36 31//36 
f 96//37 103//37 39//37 37//37 
f 41//38 42//38 106//38 93//38 
f 23//39 24//39 97//39 94//39 
f 29//40 30//40 100//40 95//40 
f 35//41 36//41 103//41 96//41 
f 60//42 62//42 99//42 97//42 
f 50//43 98//43 97//43 24//43 
f 100//44 30//44 48//44 101//44 
f 63//45 65//45 102//45 100//45 
f 103//46 36//46 46//46 104//46 
f 66//47 68//47 105//47 103//47 
f 106//48 42//48 52//48 107//48 
f 57//49 59//49 108//49 106//49 
f 93//50 43//50 5//50 
f 96//51 37//51 2//51 
f 95//52 31//52 11//52 
f 94//53 25//53 8//53 
# 72 polygons - 36 triangles

